# Blender v3.0.1 OBJ File: 'Pistol.blend'
# www.blender.org
mtllib Pistol.mtl
o Pistol_Cube
v 2.885367 -3.593603 0.654474
v 1.684800 0.491038 0.654474
v 2.885367 -3.593603 -0.654474
v 1.684800 0.491038 -0.654474
v 5.422246 -3.593603 0.654474
v 5.422246 -3.593603 -0.654474
v 3.492454 0.358410 -1.000000
v 3.492454 1.000000 -0.358410
v 3.492454 0.679205 -0.914043
v 3.492454 0.914043 -0.679205
v 3.492454 1.000000 0.358410
v 3.492454 0.358410 1.000000
v 3.492454 0.914043 0.679205
v 3.492454 0.679205 0.914043
v -3.492454 1.000000 -0.358410
v -3.492454 0.358410 -1.000000
v -3.492454 0.914043 -0.679205
v -3.492454 0.679205 -0.914043
v -3.492454 0.358410 1.000000
v -3.492454 1.000000 0.358410
v -3.492454 0.679205 0.914043
v -3.492454 0.914043 0.679205
v 3.928282 0.000665 0.654474
v 3.261344 0.491038 0.654474
v 3.782856 0.245851 0.654474
v 3.538740 0.425340 0.654474
v 3.261344 0.491038 -0.654474
v 3.928282 0.000665 -0.654474
v 3.538740 0.425340 -0.654474
v 3.782856 0.245851 -0.654474
v 3.492454 -1.000000 -0.389509
v 3.492454 -0.389509 -1.000000
v 3.492454 -0.918210 -0.694754
v 3.492454 -0.694754 -0.918210
v 3.492454 -0.389509 1.000000
v 3.492454 -1.000000 0.389509
v 3.492454 -0.694754 0.918210
v 3.492454 -0.918210 0.694754
v -3.492454 -0.389509 -1.000000
v -3.492454 -1.000000 -0.389509
v -3.492454 -0.694754 -0.918210
v -3.492454 -0.918210 -0.694754
v -3.492454 -1.000000 0.389509
v -3.492454 -0.389509 1.000000
v -3.492454 -0.918210 0.694754
v -3.492454 -0.694754 0.918210
v 3.210845 -0.002359 0.377910
v 3.022673 0.512048 0.377910
v 3.210845 -0.002359 -0.377910
v 3.022673 0.512048 -0.377910
v 4.499784 0.469142 0.377910
v 4.311612 0.983549 0.377910
v 4.499784 0.469142 -0.377910
v 4.311612 0.983549 -0.377910
vt 0.375000 0.076311
vt 0.385224 0.038156
vt 0.413156 0.010224
vt 0.451311 0.000000
vt 0.544801 0.000000
vt 0.584901 0.010745
vt 0.614255 0.040099
vt 0.625000 0.080199
vt 0.625000 0.169801
vt 0.614255 0.209901
vt 0.584901 0.239255
vt 0.544801 0.250000
vt 0.451311 0.250000
vt 0.413156 0.239776
vt 0.385224 0.211844
vt 0.375000 0.173689
vt 0.375000 0.576311
vt 0.385224 0.538156
vt 0.413156 0.510224
vt 0.451311 0.500000
vt 0.544801 0.500000
vt 0.584901 0.510745
vt 0.614255 0.540099
vt 0.625000 0.580199
vt 0.625000 0.669801
vt 0.614255 0.709901
vt 0.584901 0.739255
vt 0.544801 0.750000
vt 0.451311 0.750000
vt 0.413156 0.739776
vt 0.385224 0.711844
vt 0.375000 0.673689
vt 0.875000 0.580199
vt 0.875000 0.669801
vt 0.544801 1.000000
vt 0.451311 1.000000
vt 0.375000 0.000000
vt 0.625000 0.000000
vt 0.625000 0.250000
vt 0.375000 0.250000
vt 0.375000 0.750000
vt 0.592875 0.750000
vt 0.608938 0.755494
vt 0.620696 0.771270
vt 0.625000 0.793088
vt 0.625000 1.000000
vt 0.375000 1.000000
vt 0.625000 0.456912
vt 0.620696 0.478730
vt 0.608938 0.494506
vt 0.592875 0.500000
vt 0.375000 0.500000
vt 0.125000 0.500000
vt 0.125000 0.750000
vt 0.875000 0.709901
vt 0.625000 0.709901
vt 0.625000 0.750000
vt 0.625000 1.000000
vt 0.584901 1.000000
vt 0.584901 0.750000
vt 0.625000 0.540099
vt 0.875000 0.540099
vt 0.625000 0.250000
vt 0.625000 0.500000
vt 0.584901 0.500000
vt 0.584901 0.250000
vt 0.125000 0.576311
vt 0.125000 0.673689
vt 0.668088 0.500000
vt 0.668088 0.750000
vt 0.644823 0.750000
vt 0.644823 0.500000
vt 0.610221 0.750000
vt 0.610221 0.500000
vt 0.875000 0.500000
vt 0.875000 0.750000
vt 0.125000 0.538156
vt 0.375000 0.538156
vt 0.125000 0.500000
vt 0.375000 0.500000
vt 0.413156 0.500000
vt 0.413156 0.250000
vt 0.375000 0.711844
vt 0.125000 0.711844
vt 0.375000 0.750000
vt 0.125000 0.750000
vt 0.413156 1.000000
vt 0.413156 0.750000
vt 0.375000 0.000000
vt 0.375000 0.250000
vt 0.625000 0.250000
vt 0.625000 0.000000
vt 0.375000 0.500000
vt 0.625000 0.500000
vt 0.375000 0.750000
vt 0.625000 0.750000
vt 0.375000 1.000000
vt 0.625000 1.000000
vt 0.125000 0.500000
vt 0.125000 0.750000
vt 0.875000 0.750000
vt 0.875000 0.500000
vn -1.0000 0.0000 0.0000
vn 1.0000 0.0000 0.0000
vn 0.0000 1.0000 0.0000
vn 0.0000 0.0000 1.0000
vn -0.9594 -0.2820 0.0000
vn -0.0000 0.0000 -1.0000
vn 0.0000 -1.0000 0.0000
vn 0.9234 0.3838 0.0000
vn -0.0000 0.9659 0.2588
vn -0.0000 0.7071 0.7071
vn 0.0000 0.2588 0.9659
vn 0.0000 0.9659 -0.2588
vn 0.0000 0.7071 -0.7071
vn 0.0000 0.2588 -0.9659
vn 0.2305 0.9731 0.0000
vn 0.5924 0.8057 0.0000
vn 0.8601 0.5101 0.0000
vn 0.0000 -0.9659 -0.2588
vn 0.0000 -0.7071 -0.7071
vn 0.0000 -0.2588 -0.9659
vn 0.0000 -0.9659 0.2588
vn 0.0000 -0.7071 0.7071
vn 0.0000 -0.2588 0.9659
vn 0.9391 0.3435 0.0000
vn -0.9391 -0.3435 0.0000
vn -0.3435 0.9391 0.0000
vn 0.3435 -0.9391 -0.0000
usemtl Material
s off
f 43/1/1 45/2/1 46/3/1 44/4/1 19/5/1 21/6/1 22/7/1 20/8/1 15/9/1 17/10/1 18/11/1 16/12/1 39/13/1 41/14/1 42/15/1 40/16/1
f 31/17/2 33/18/2 34/19/2 32/20/2 7/21/2 9/22/2 10/23/2 8/24/2 11/25/2 13/26/2 14/27/2 12/28/2 35/29/2 37/30/2 38/31/2 36/32/2
f 8/24/3 15/33/3 20/34/3 11/25/3
f 35/29/4 12/28/4 19/35/4 44/36/4
f 1/37/5 2/38/5 4/39/5 3/40/5
f 5/41/4 23/42/4 25/43/4 26/44/4 24/45/4 2/46/4 1/47/4
f 3/40/6 4/39/6 27/48/6 29/49/6 30/50/6 28/51/6 6/52/6
f 3/53/7 6/52/7 5/41/7 1/54/7
f 6/52/8 28/51/8 23/42/8 5/41/8
f 11/25/9 20/34/9 22/55/9 13/56/9
f 13/57/10 22/58/10 21/59/10 14/60/10
f 14/60/11 21/59/11 19/35/11 12/28/11
f 15/33/12 8/24/12 10/61/12 17/62/12
f 17/63/13 10/64/13 9/65/13 18/66/13
f 18/66/14 9/65/14 7/21/14 16/12/14
f 40/67/7 31/17/7 36/32/7 43/68/7
f 27/69/15 24/70/15 26/71/15 29/72/15
f 29/72/16 26/71/16 25/73/16 30/74/16
f 30/74/17 25/73/17 23/42/17 28/51/17
f 27/69/3 4/75/3 2/76/3 24/70/3
f 31/17/18 40/67/18 42/77/18 33/78/18
f 33/78/19 42/77/19 41/79/19 34/80/19
f 34/81/20 41/82/20 39/13/20 32/20/20
f 43/68/21 36/32/21 38/83/21 45/84/21
f 45/84/22 38/83/22 37/85/22 46/86/22
f 46/87/23 37/88/23 35/29/23 44/36/23
f 39/13/6 16/12/6 7/21/6 32/20/6
f 47/89/24 49/90/24 50/91/24 48/92/24
f 49/90/4 53/93/4 54/94/4 50/91/4
f 53/93/25 51/95/25 52/96/25 54/94/25
f 51/95/6 47/97/6 48/98/6 52/96/6
f 49/99/26 47/100/26 51/95/26 53/93/26
f 54/94/27 52/96/27 48/101/27 50/102/27
